# xmcd CD database file
#
# Track frame offsets:
#	150
#	2037
#	27037
#	49037
#	72897
#	93887
#	97172
#	121512
#	146172
#	167670
#	193020
#
# Disc length: 2725 seconds
#
# Revision: 3
# Processed by: cddbd v1.4PL0 Copyright (c) Steve Scherf et al.
# Submitted via: CDex 1.50Beta7
#
DISCID=890aa30b
DTITLE=James Brown - I'm Real
DYEAR=1988
DGENRE=Soul
TTITLE0=Tribute
TTITLE1=I'm Real
TTITLE2=Static
TTITLE3=Time to get Busy
TTITLE4=You and me
TTITLE5=Interview
TTITLE6=She looks all types a' good
TTITLE7=Keep keepin'
TTITLE8=Can't get enuf
TTITLE9=It's your money $
TTITLE10=Godfather runnin' the joint
EXTD=YEAR: 1988
EXTT0=
EXTT1=
EXTT2=
EXTT3=
EXTT4=
EXTT5=
EXTT6=
EXTT7=
EXTT8=
EXTT9=
EXTT10=
PLAYORDER=
